<svg width="141" height="24" viewBox="0 0 141 24" fill="none" xmlns="http://www.w3.org/2000/svg">
<path d="M6.64648 1.67188L12.125 17.1406L17.5742 1.67188H23.3457V23H18.9365V17.1699L19.376 7.10645L13.6191 23H10.6016L4.85938 7.12109L5.29883 17.1699V23H0.904297V1.67188H6.64648ZM34.2002 23.293C31.876 23.293 29.9814 22.5801 28.5166 21.1543C27.0615 19.7285 26.334 17.8291 26.334 15.4561V15.0459C26.334 13.4541 26.6416 12.0332 27.2568 10.7832C27.8721 9.52344 28.7412 8.55664 29.8643 7.88281C30.9971 7.19922 32.2861 6.85742 33.7314 6.85742C35.8994 6.85742 37.6035 7.54102 38.8438 8.9082C40.0938 10.2754 40.7188 12.2139 40.7188 14.7236V16.4521H30.626C30.7627 17.4873 31.1729 18.3174 31.8564 18.9424C32.5498 19.5674 33.4238 19.8799 34.4785 19.8799C36.1094 19.8799 37.3838 19.2891 38.3018 18.1074L40.3818 20.4365C39.7471 21.335 38.8877 22.0381 37.8037 22.5459C36.7197 23.0439 35.5186 23.293 34.2002 23.293ZM33.7168 10.2852C32.877 10.2852 32.1934 10.5684 31.666 11.1348C31.1484 11.7012 30.8164 12.5117 30.6699 13.5664H36.5586V13.2295C36.5391 12.292 36.2852 11.5693 35.7969 11.0615C35.3086 10.5439 34.6152 10.2852 33.7168 10.2852ZM52.6279 21.3887C51.583 22.6582 50.1377 23.293 48.292 23.293C46.5928 23.293 45.2939 22.8047 44.3955 21.8281C43.5068 20.8516 43.0527 19.4209 43.0332 17.5361V7.15039H47.2666V17.3896C47.2666 19.04 48.0186 19.8652 49.5225 19.8652C50.958 19.8652 51.9443 19.3672 52.4814 18.3711V7.15039H56.7295V23H52.7451L52.6279 21.3887ZM73.0332 14.2842H64.5957V23H60.2012V1.67188H74.0879V5.23145H64.5957V10.7393H73.0332V14.2842ZM84.8838 11.1201C84.3076 11.042 83.7998 11.0029 83.3604 11.0029C81.7588 11.0029 80.709 11.5449 80.2109 12.6289V23H75.9775V7.15039H79.9766L80.0938 9.04004C80.9434 7.58496 82.1201 6.85742 83.624 6.85742C84.0928 6.85742 84.5322 6.9209 84.9424 7.04785L84.8838 11.1201ZM93.9365 23.293C91.6123 23.293 89.7178 22.5801 88.2529 21.1543C86.7979 19.7285 86.0703 17.8291 86.0703 15.4561V15.0459C86.0703 13.4541 86.3779 12.0332 86.9932 10.7832C87.6084 9.52344 88.4775 8.55664 89.6006 7.88281C90.7334 7.19922 92.0225 6.85742 93.4678 6.85742C95.6357 6.85742 97.3398 7.54102 98.5801 8.9082C99.8301 10.2754 100.455 12.2139 100.455 14.7236V16.4521H90.3623C90.499 17.4873 90.9092 18.3174 91.5928 18.9424C92.2861 19.5674 93.1602 19.8799 94.2148 19.8799C95.8457 19.8799 97.1201 19.2891 98.0381 18.1074L100.118 20.4365C99.4834 21.335 98.624 22.0381 97.54 22.5459C96.4561 23.0439 95.2549 23.293 93.9365 23.293ZM93.4531 10.2852C92.6133 10.2852 91.9297 10.5684 91.4023 11.1348C90.8848 11.7012 90.5527 12.5117 90.4062 13.5664H96.2949V13.2295C96.2754 12.292 96.0215 11.5693 95.5332 11.0615C95.0449 10.5439 94.3516 10.2852 93.4531 10.2852ZM110.167 23.293C107.843 23.293 105.948 22.5801 104.483 21.1543C103.028 19.7285 102.301 17.8291 102.301 15.4561V15.0459C102.301 13.4541 102.608 12.0332 103.224 10.7832C103.839 9.52344 104.708 8.55664 105.831 7.88281C106.964 7.19922 108.253 6.85742 109.698 6.85742C111.866 6.85742 113.57 7.54102 114.811 8.9082C116.061 10.2754 116.686 12.2139 116.686 14.7236V16.4521H106.593C106.729 17.4873 107.14 18.3174 107.823 18.9424C108.517 19.5674 109.391 19.8799 110.445 19.8799C112.076 19.8799 113.351 19.2891 114.269 18.1074L116.349 20.4365C115.714 21.335 114.854 22.0381 113.771 22.5459C112.687 23.0439 111.485 23.293 110.167 23.293ZM109.684 10.2852C108.844 10.2852 108.16 10.5684 107.633 11.1348C107.115 11.7012 106.783 12.5117 106.637 13.5664H112.525V13.2295C112.506 12.292 112.252 11.5693 111.764 11.0615C111.275 10.5439 110.582 10.2852 109.684 10.2852ZM123.57 23H119.322V0.5H123.57V23ZM136.256 23C136.061 22.6191 135.919 22.1455 135.831 21.5791C134.806 22.7217 133.473 23.293 131.832 23.293C130.279 23.293 128.99 22.8438 127.965 21.9453C126.949 21.0469 126.441 19.9141 126.441 18.5469C126.441 16.8672 127.062 15.5781 128.302 14.6797C129.552 13.7812 131.354 13.3271 133.707 13.3174H135.655V12.4092C135.655 11.6768 135.465 11.0908 135.084 10.6514C134.713 10.2119 134.122 9.99219 133.312 9.99219C132.599 9.99219 132.037 10.1631 131.627 10.5049C131.227 10.8467 131.026 11.3154 131.026 11.9111H126.793C126.793 10.9932 127.076 10.1436 127.643 9.3623C128.209 8.58105 129.01 7.9707 130.045 7.53125C131.08 7.08203 132.242 6.85742 133.531 6.85742C135.484 6.85742 137.032 7.35059 138.175 8.33691C139.327 9.31348 139.903 10.6904 139.903 12.4678V19.3379C139.913 20.8418 140.123 21.9795 140.533 22.751V23H136.256ZM132.755 20.0557C133.38 20.0557 133.956 19.9189 134.483 19.6455C135.011 19.3623 135.401 18.9863 135.655 18.5176V15.793H134.073C131.954 15.793 130.826 16.5254 130.689 17.9902L130.675 18.2393C130.675 18.7666 130.86 19.2012 131.231 19.543C131.603 19.8848 132.11 20.0557 132.755 20.0557Z" fill="white"/>
</svg>
